<?xml version="1.0" encoding="utf-8"?>
<!-- Generator: Adobe Illustrator 27.7.0, SVG Export Plug-In . SVG Version: 6.00 Build 0)  -->
<svg version="1.1" xmlns="http://www.w3.org/2000/svg" xmlns:xlink="http://www.w3.org/1999/xlink" x="0px" y="0px"
	 viewBox="0 0 566.9 164.2" style="enable-background:new 0 0 566.9 164.2;" xml:space="preserve">
<style type="text/css">
	.st0{fill:#001C2F;}
	.st1{fill:#FFFFFF;}
</style>
<g id="Layer_2">
	<path class="st0" d="M540.3,161.5H26.6c-9.6,0-17.4-7.8-17.4-17.4v-124c0-9.6,7.8-17.4,17.4-17.4h513.6c9.6,0,17.4,7.8,17.4,17.4
		v124C557.7,153.7,549.9,161.5,540.3,161.5z"/>
</g>
<g id="Layer_1">
	<g>
		<path class="st1" d="M138,34.7c2.1,0,3.4,1.1,3.4,2.9c0,0.7-0.2,1.4-0.8,2.6l-31.9,56.5c-1.2,2.2-2.4,2.8-4.7,2.8h-4.1
			c-2.3,0-3.5-0.6-4.8-2.8l-32-56.4c-0.5-0.9-0.8-1.8-0.8-2.7c0-1.7,1.3-2.9,3.4-2.9h1.4c2.2,0,3.4,1,4.5,3.1l29.1,51.8
			c0.6,0.9,0.9,1.2,1.4,1.2s0.9-0.3,1.4-1.2l28.7-51.8c1.1-2.1,2.3-3.1,4.5-3.1C136.7,34.7,138,34.7,138,34.7z"/>
		<path class="st1" d="M153.9,57.4c0-2.1,1.4-3.6,3.5-3.6h0.9c2.1,0,3.5,1.5,3.5,3.6v38.4c0,2.1-1.4,3.6-3.5,3.6h-0.9
			c-2.1,0-3.5-1.5-3.5-3.6V57.4z"/>
		<path class="st1" d="M203.5,53.5c21.6,0,26.3,4.9,26.3,18.9c0,4-2.1,6.1-7.1,6.1h-36.8c-3,0-3.5,1.1-3.5,2.9
			c0,8.9,2.5,11.9,20,11.9h23.8c1.6,0,2.8,1,2.8,2.5v0.6c0,2.1-1.1,3.4-14.6,3.4h-12c-23.2,0-27.9-4-27.9-23.1
			c0-18.6,5.2-23.1,26.8-23.1h2.2V53.5z M201.9,59.5c-16.2,0-19.5,3.1-19.5,10.6c0,1.7,0.6,2.5,3.1,2.5h33.3c2.7,0,3.2-0.8,3.2-2.5
			c0-7.1-2.1-10.6-18.7-10.6H201.9z"/>
		<path class="st1" d="M282.3,53.8c2.1,0,3.2,0.9,4,2.9L300.7,91c0.4,0.9,0.8,1.2,1.3,1.2s0.9-0.4,1.3-1.2l14.4-34.3
			c0.8-2,2.1-2.9,4-2.9h1.1c2,0,3.1,1.1,3.1,2.7c0,0.7-0.3,1.5-0.7,2.4l-17.2,38c-0.9,2.1-2.2,2.6-4.3,2.6H300c-2,0-3.4-0.5-4.3-2.6
			l-13.4-32.2c-0.4-1-0.7-1.3-1.1-1.3s-0.7,0.4-1.1,1.3l-13,32.2c-0.8,2.1-2.2,2.6-4.3,2.6H259c-2.1,0-3.4-0.5-4.3-2.6L237.4,59
			c-0.4-0.9-0.7-1.7-0.7-2.5c0-1.5,1.1-2.7,3.1-2.7h1.2c2,0,3.2,0.9,4,2.9L259.7,91c0.4,0.9,0.8,1.2,1.3,1.2s0.9-0.4,1.3-1.2
			l14-34.3c0.8-2,2-2.9,4-2.9C280.3,53.8,282.3,53.8,282.3,53.8z"/>
		<path class="st1" d="M346.3,43.9c-0.7-0.7-1.2-1-1.7-1c-0.6,0-1,0.4-1,1.2v51.6c0,2.2-1.4,3.6-3.7,3.6h-1c-2.3,0-3.7-1.4-3.7-3.6
			V40.2c0-3.2,1.8-5.4,6.1-5.4h4.6c2.6,0,4.1,0.6,6,2.6l49.5,53c0.7,0.7,1.2,1,1.7,1c0.6,0,1-0.4,1-1.2V38.4c0-2.2,1.4-3.6,3.7-3.6
			h1c2.3,0,3.7,1.4,3.7,3.6V94c0,3.2-1.8,5.4-6.1,5.4h-4.6c-2.6,0-4.1-0.6-6-2.6L346.3,43.9z"/>
		<path class="st1" d="M454.4,53.5c21.6,0,26.3,4.9,26.3,18.9c0,4-2.1,6.1-7.1,6.1h-36.8c-3,0-3.5,1.1-3.5,2.9
			c0,8.9,2.5,11.9,20,11.9h23.8c1.6,0,2.8,1,2.8,2.5v0.6c0,2.1-1.1,3.4-14.6,3.4h-12c-23.2,0-27.9-4-27.9-23.1
			c0-18.6,5.2-23.1,26.8-23.1h2.2V53.5z M452.9,59.5c-16.2,0-19.5,3.1-19.5,10.6c0,1.7,0.6,2.5,3.1,2.5h33.3c2.7,0,3.2-0.8,3.2-2.5
			c0-7.1-2.1-10.6-18.7-10.6H452.9z"/>
		<path class="st1" d="M490.5,59.7c-1.6,0-2.8-1-2.8-2.8v-0.4c0-1.7,1.2-2.8,2.8-2.8h5.4c1.7,0,2.7-0.8,2.7-2.3V45
			c0-2.1,1.4-3.6,3.5-3.6h0.9c2.1,0,3.5,1.5,3.5,3.6v6.4c0,1.5,1,2.3,2.7,2.3h24.3c1.6,0,2.8,1,2.8,2.8v0.4c0,1.7-1.2,2.8-2.8,2.8
			h-24.3c-1.7,0-2.7,0.8-2.7,2.3v19.7c0,9.2,1.8,11.4,10.8,11.4h15.4c1.6,0,2.8,1,2.8,2.5v0.3c0,2.7-1,3.9-14.2,3.9h-5.8
			c-13.2,0-17-4.2-17-17.5V61.9c0-1.5-1-2.3-2.7-2.3L490.5,59.7L490.5,59.7z"/>
		<path class="st1" d="M53,43.1c-0.4,3.3-2.6,5.2-5.4,5.5c-2.9,0.3-8.2,0.4-8.2,0.4s-4.1,0.1-8.1-0.4c-3.8-0.5-5.1-2-5.4-5.5
			c-0.4-3.6-0.4-8.4-0.4-8.4s-0.1-4.6,0.4-8.2s2-5.1,5.4-5.5s8-0.4,8-0.4s4.6,0,8.3,0.4s5.2,2.5,5.4,5.5c0.3,3.1,0.4,8.2,0.4,8.2
			S53.4,39.8,53,43.1z"/>
		<path class="st1" d="M162.7,42.7c-0.1,1.2-0.9,1.8-1.9,2c-1,0.1-2.9,0.1-2.9,0.1s-1.5,0.1-2.9-0.1c-1.3-0.2-1.8-0.7-1.9-2
			c-0.1-1.3-0.1-3-0.1-3s0-1.6,0.1-2.9c0.2-1.3,0.7-1.8,1.9-2c1.2-0.1,2.8-0.1,2.8-0.1s1.6,0,2.9,0.1c1.3,0.2,1.8,0.9,1.9,2
			c0.1,1.1,0.1,2.9,0.1,2.9S162.8,41.6,162.7,42.7z"/>
	</g>
	<g>
		<path class="st1" d="M53.8,122.9c0-2.4,1-3.6,4.2-3.6h17.4c0.8,0,1.3,0.5,1.3,1.2v0.3c0,0.7-0.4,1.2-1.3,1.2H58.3
			c-1,0-1.3,0.4-1.3,1.2v5.9c0,0.7,0.4,1.1,1.2,1.1h16.3c0.8,0,1.3,0.5,1.3,1.2v0.3c0,0.7-0.4,1.2-1.3,1.2H58.3
			c-0.8,0-1.2,0.4-1.2,1.1v7.8c0,0.8-0.5,1.4-1.4,1.4h-0.4c-0.9,0-1.4-0.6-1.4-1.4L53.8,122.9L53.8,122.9z"/>
		<path class="st1" d="M104.8,120.6c0-0.8,0.5-1.3,1.4-1.3h0.4c0.9,0,1.4,0.5,1.4,1.3v13.9c0,7.1-2,8.7-13.6,8.7h-0.7
			c-11.5,0-13.5-1.6-13.5-8.7v-13.9c0-0.8,0.5-1.3,1.4-1.3H82c0.9,0,1.4,0.5,1.4,1.3V134c0,5.6,1.1,6.6,10.1,6.6h1
			c9,0,10.3-0.9,10.3-6.6L104.8,120.6L104.8,120.6z"/>
		<path class="st1" d="M127.4,121.9c-0.8,0-1.2,0.4-1.2,1.1v18.7c0,0.8-0.5,1.3-1.4,1.3h-0.4c-0.9,0-1.4-0.5-1.4-1.3V123
			c0-0.7-0.4-1.1-1.2-1.1h-9.3c-0.8,0-1.3-0.5-1.3-1.2v-0.3c0-0.7,0.4-1.2,1.3-1.2h24.3c0.8,0,1.3,0.5,1.3,1.2v0.3
			c0,0.7-0.4,1.2-1.3,1.2H127.4z"/>
		<path class="st1" d="M165.6,120.6c0-0.8,0.5-1.3,1.4-1.3h0.4c0.9,0,1.4,0.5,1.4,1.3v13.9c0,7.1-2,8.7-13.6,8.7h-0.7
			c-11.5,0-13.5-1.6-13.5-8.7v-13.9c0-0.8,0.5-1.3,1.4-1.3h0.4c0.9,0,1.4,0.5,1.4,1.3V134c0,5.6,1.1,6.6,10.1,6.6h1
			c9,0,10.3-0.9,10.3-6.6L165.6,120.6L165.6,120.6z"/>
		<path class="st1" d="M174.5,122.9c0-2.4,1-3.6,4.2-3.6h13c7.3,0,9.1,1.4,9.1,6.5v0.9c0,2.9-0.6,4.3-2.4,5.3
			c-0.8,0.4-0.9,0.6-0.9,0.8s0.1,0.3,0.8,0.7c1.7,0.9,2.4,2,2.4,5.5v2.9c0,0.8-0.5,1.3-1.4,1.3h-0.4c-0.9,0-1.4-0.5-1.4-1.3v-1.3
			c0-5.3-0.7-6.4-7.4-6.4h-11.2c-0.8,0-1.2,0.4-1.2,1.1v6.6c0,0.8-0.5,1.3-1.4,1.3h-0.4c-0.9,0-1.4-0.5-1.4-1.3L174.5,122.9
			L174.5,122.9z M191.3,131.4c5,0,6.3-1.1,6.3-4.5v-0.7c0-3.7-1-4.4-6.9-4.4H179c-1,0-1.3,0.4-1.3,1.2v7.3c0,0.7,0.4,1.1,1.2,1.1
			H191.3z"/>
		<path class="st1" d="M206.3,122.9c0-2.4,1-3.6,4.2-3.6h17.9c0.8,0,1.3,0.5,1.3,1.2v0.3c0,0.7-0.4,1.2-1.3,1.2h-17.6
			c-1,0-1.3,0.4-1.3,1.2v5.3c0,0.7,0.4,1.1,1.2,1.1h16.8c0.8,0,1.3,0.5,1.3,1.2v0.2c0,0.7-0.4,1.2-1.3,1.2h-16.8
			c-0.8,0-1.2,0.4-1.2,1.1v6c0,0.8,0.3,1.2,1.3,1.2h17.8c0.8,0,1.3,0.5,1.3,1.2v0.4c0,0.7-0.4,1.2-1.3,1.2h-18.1
			c-3.2,0-4.2-1.2-4.2-3.6L206.3,122.9L206.3,122.9z"/>
		<path class="st1" d="M259.5,143.2c-12.5,0-14.5-1.8-14.5-11.8v-0.5c0-10,2.1-11.8,14.5-11.8h1c12.4,0,14.5,1.8,14.5,11.8v0.5
			c0,10-2.1,11.8-14.5,11.8H259.5z M260.5,140.5c10.2,0,11.4-1,11.4-9.3V131c0-8.3-1.2-9.3-11.4-9.3h-0.8c-10.2,0-11.4,1-11.4,9.3
			v0.2c0,8.3,1.2,9.3,11.4,9.3H260.5z"/>
		<path class="st1" d="M280.2,122.9c0-2.4,1-3.6,4.2-3.6h17.4c0.8,0,1.3,0.5,1.3,1.2v0.3c0,0.7-0.4,1.2-1.3,1.2h-17.1
			c-1,0-1.3,0.4-1.3,1.2v5.9c0,0.7,0.4,1.1,1.2,1.1H301c0.8,0,1.3,0.5,1.3,1.2v0.3c0,0.7-0.4,1.2-1.3,1.2h-16.3
			c-0.8,0-1.2,0.4-1.2,1.1v7.8c0,0.8-0.5,1.4-1.4,1.4h-0.4c-0.9,0-1.4-0.6-1.4-1.4v-18.9H280.2z"/>
		<path class="st1" d="M335.2,140.5c4.8,0,6.2-0.8,6.2-4v-0.7c0-2.6-1.4-3.6-5.7-3.6h-9c-6.7,0-8.3-2-8.3-6.2v-0.6
			c0-4.8,2.5-6.4,9.6-6.4h9.3c5.7,0,6.3,0.4,6.3,1.5v0.1c0,0.6-0.5,1-1.2,1h-14.6c-4.6,0-6.1,0.8-6.1,3.8v0.6c0,2.4,1.4,3.4,5.7,3.4
			h9c6.6,0,8.2,2,8.2,6.4v0.5c0,5.2-2.2,6.8-9.8,6.8h-10.9c-5.4,0-5.9-0.4-5.9-1.5v-0.1c0-0.6,0.5-1,1.2-1L335.2,140.5L335.2,140.5z
			"/>
		<path class="st1" d="M349.1,130.3c0-9.6,2.3-11.3,13-11.3h9.6c5.7,0,6.3,0.5,6.3,1.6v0.1c0,0.6-0.5,1.1-1.2,1.1h-14.3
			c-9.4,0-10.2,1-10.2,8.7v1.2c0,7.6,0.9,8.7,10.2,8.7h14.3c0.7,0,1.2,0.5,1.2,1.1v0.1c0,1.1-0.5,1.6-6.3,1.6h-9.6
			c-10.8,0-13-1.6-13-11.3V130.3z"/>
		<path class="st1" d="M383,122.9c0-2.4,1-3.6,4.2-3.6h13c7.3,0,9.1,1.4,9.1,6.5v0.9c0,2.9-0.6,4.3-2.4,5.3
			c-0.8,0.4-0.9,0.6-0.9,0.8s0.1,0.3,0.8,0.7c1.7,0.9,2.4,2,2.4,5.5v2.9c0,0.8-0.5,1.3-1.4,1.3h-0.4c-0.9,0-1.4-0.5-1.4-1.3v-1.3
			c0-5.3-0.7-6.4-7.4-6.4h-11.2c-0.8,0-1.2,0.4-1.2,1.1v6.6c0,0.8-0.5,1.3-1.4,1.3h-0.4c-0.9,0-1.4-0.5-1.4-1.3L383,122.9L383,122.9
			z M399.8,131.4c5,0,6.3-1.1,6.3-4.5v-0.7c0-3.7-1-4.4-6.9-4.4h-11.7c-1,0-1.3,0.4-1.3,1.2v7.3c0,0.7,0.4,1.1,1.2,1.1H399.8z"/>
		<path class="st1" d="M414.8,122.9c0-2.4,1-3.6,4.2-3.6h18c0.8,0,1.3,0.5,1.3,1.2v0.3c0,0.7-0.4,1.2-1.3,1.2h-17.6
			c-1,0-1.3,0.4-1.3,1.2v5.3c0,0.7,0.4,1.1,1.2,1.1h16.8c0.8,0,1.3,0.5,1.3,1.2v0.2c0,0.7-0.4,1.2-1.3,1.2h-16.8
			c-0.8,0-1.2,0.4-1.2,1.1v6c0,0.8,0.3,1.2,1.3,1.2h17.8c0.8,0,1.3,0.5,1.3,1.2v0.4c0,0.7-0.4,1.2-1.3,1.2h-18.1
			c-3.2,0-4.2-1.2-4.2-3.6L414.8,122.9L414.8,122.9z"/>
		<path class="st1" d="M442.5,122.9c0-2.4,1-3.6,4.2-3.6h17.9c0.8,0,1.3,0.5,1.3,1.2v0.3c0,0.7-0.4,1.2-1.3,1.2H447
			c-1,0-1.3,0.4-1.3,1.2v5.3c0,0.7,0.4,1.1,1.2,1.1h16.8c0.8,0,1.3,0.5,1.3,1.2v0.2c0,0.7-0.4,1.2-1.3,1.2h-16.8
			c-0.8,0-1.2,0.4-1.2,1.1v6c0,0.8,0.3,1.2,1.3,1.2h17.8c0.8,0,1.3,0.5,1.3,1.2v0.4c0,0.7-0.4,1.2-1.3,1.2h-18.1
			c-3.2,0-4.2-1.2-4.2-3.6L442.5,122.9L442.5,122.9z"/>
		<path class="st1" d="M474.3,122.6c-0.2-0.2-0.5-0.3-0.6-0.3c-0.2,0-0.4,0.1-0.4,0.5v19c0,0.8-0.5,1.3-1.4,1.3h-0.4
			c-0.9,0-1.4-0.5-1.4-1.3v-20.4c0-1.2,0.7-2,2.3-2h1.7c1,0,1.5,0.2,2.2,0.9l18.6,19.5c0.2,0.2,0.5,0.3,0.6,0.3
			c0.2,0,0.4-0.1,0.4-0.5v-19c0-0.8,0.5-1.3,1.4-1.3h0.4c0.9,0,1.4,0.5,1.4,1.3V141c0,1.2-0.7,2-2.3,2h-1.7c-1,0-1.5-0.2-2.2-0.9
			L474.3,122.6z"/>
		<path class="st1" d="M521.6,140.5c4.8,0,6.2-0.8,6.2-4v-0.7c0-2.6-1.4-3.6-5.7-3.6h-9c-6.7,0-8.3-2-8.3-6.2v-0.6
			c0-4.8,2.5-6.4,9.6-6.4h9.3c5.7,0,6.3,0.4,6.3,1.5v0.1c0,0.6-0.5,1-1.2,1h-14.6c-4.6,0-6.1,0.8-6.1,3.8v0.6c0,2.4,1.4,3.4,5.7,3.4
			h9c6.6,0,8.2,2,8.2,6.4v0.5c0,5.2-2.2,6.8-9.8,6.8h-10.9c-5.4,0-5.9-0.4-5.9-1.5v-0.1c0-0.6,0.5-1,1.2-1L521.6,140.5L521.6,140.5z
			"/>
	</g>
	<polygon class="st1" points="284.6,108.3 29.5,109.7 284.6,111.1 539.7,109.7 	"/>
</g>
</svg>
